<mxfile host="app.diagrams.net" modified="2021-01-14T08:23:51.732Z" agent="5.0 (Macintosh; Intel Mac OS X 10_15_7) AppleWebKit/537.36 (KHTML, like Gecko) Chrome/87.0.4280.141 Safari/537.36" etag="wr_2UbtltfVHH84ur_Ci" version="14.2.2" type="github">
  <diagram id="SmOvXIEMjcyEu2tocjA3" name="Page-1">
    <mxGraphModel dx="946" dy="557" grid="1" gridSize="10" guides="1" tooltips="1" connect="1" arrows="1" fold="1" page="1" pageScale="1" pageWidth="827" pageHeight="1169" math="0" shadow="0">
      <root>
        <mxCell id="0" />
        <mxCell id="1" parent="0" />
        <mxCell id="AhYzzjqt9SPEp7-xoYBr-4" style="edgeStyle=orthogonalEdgeStyle;rounded=0;orthogonalLoop=1;jettySize=auto;html=1;exitX=1;exitY=0.5;exitDx=0;exitDy=0;entryX=0;entryY=0.5;entryDx=0;entryDy=0;" edge="1" parent="1" source="AhYzzjqt9SPEp7-xoYBr-1" target="AhYzzjqt9SPEp7-xoYBr-3">
          <mxGeometry relative="1" as="geometry" />
        </mxCell>
        <mxCell id="AhYzzjqt9SPEp7-xoYBr-5" value="&lt;span style=&quot;font-size: 12px ; background-color: rgb(248 , 249 , 250)&quot;&gt;发货主体仓库字段&lt;/span&gt;" style="edgeLabel;html=1;align=center;verticalAlign=middle;resizable=0;points=[];" vertex="1" connectable="0" parent="AhYzzjqt9SPEp7-xoYBr-4">
          <mxGeometry x="-0.25" y="-1" relative="1" as="geometry">
            <mxPoint x="7" y="-1" as="offset" />
          </mxGeometry>
        </mxCell>
        <mxCell id="AhYzzjqt9SPEp7-xoYBr-1" value="交易系统mq&lt;br&gt;(增加发货主体仓库字段)" style="shape=parallelogram;perimeter=parallelogramPerimeter;whiteSpace=wrap;html=1;fixedSize=1;" vertex="1" parent="1">
          <mxGeometry x="30" y="239" width="160" height="70" as="geometry" />
        </mxCell>
        <mxCell id="AhYzzjqt9SPEp7-xoYBr-15" style="edgeStyle=orthogonalEdgeStyle;rounded=0;orthogonalLoop=1;jettySize=auto;html=1;exitX=0.5;exitY=0;exitDx=0;exitDy=0;" edge="1" parent="1" source="AhYzzjqt9SPEp7-xoYBr-3" target="AhYzzjqt9SPEp7-xoYBr-6">
          <mxGeometry relative="1" as="geometry" />
        </mxCell>
        <mxCell id="AhYzzjqt9SPEp7-xoYBr-16" style="edgeStyle=orthogonalEdgeStyle;rounded=0;orthogonalLoop=1;jettySize=auto;html=1;exitX=0.5;exitY=1;exitDx=0;exitDy=0;entryX=0;entryY=0.5;entryDx=0;entryDy=0;" edge="1" parent="1" source="AhYzzjqt9SPEp7-xoYBr-3" target="AhYzzjqt9SPEp7-xoYBr-7">
          <mxGeometry relative="1" as="geometry" />
        </mxCell>
        <mxCell id="AhYzzjqt9SPEp7-xoYBr-3" value="同步三方策略" style="rhombus;whiteSpace=wrap;html=1;" vertex="1" parent="1">
          <mxGeometry x="320" y="234" width="110" height="80" as="geometry" />
        </mxCell>
        <mxCell id="AhYzzjqt9SPEp7-xoYBr-11" style="edgeStyle=orthogonalEdgeStyle;rounded=0;orthogonalLoop=1;jettySize=auto;html=1;exitX=1;exitY=0.5;exitDx=0;exitDy=0;" edge="1" parent="1" source="AhYzzjqt9SPEp7-xoYBr-6">
          <mxGeometry relative="1" as="geometry">
            <mxPoint x="720" y="204" as="targetPoint" />
          </mxGeometry>
        </mxCell>
        <mxCell id="AhYzzjqt9SPEp7-xoYBr-12" value="4 同步京东" style="edgeLabel;html=1;align=center;verticalAlign=middle;resizable=0;points=[];" vertex="1" connectable="0" parent="AhYzzjqt9SPEp7-xoYBr-11">
          <mxGeometry x="-0.1846" y="1" relative="1" as="geometry">
            <mxPoint as="offset" />
          </mxGeometry>
        </mxCell>
        <mxCell id="AhYzzjqt9SPEp7-xoYBr-17" style="edgeStyle=orthogonalEdgeStyle;rounded=0;orthogonalLoop=1;jettySize=auto;html=1;exitX=0.25;exitY=0;exitDx=0;exitDy=0;entryX=0.895;entryY=1;entryDx=0;entryDy=0;entryPerimeter=0;" edge="1" parent="1" source="AhYzzjqt9SPEp7-xoYBr-6" target="AhYzzjqt9SPEp7-xoYBr-8">
          <mxGeometry relative="1" as="geometry" />
        </mxCell>
        <mxCell id="AhYzzjqt9SPEp7-xoYBr-23" value="1" style="edgeLabel;html=1;align=center;verticalAlign=middle;resizable=0;points=[];" vertex="1" connectable="0" parent="AhYzzjqt9SPEp7-xoYBr-17">
          <mxGeometry x="0.2427" y="-1" relative="1" as="geometry">
            <mxPoint x="-2" as="offset" />
          </mxGeometry>
        </mxCell>
        <mxCell id="AhYzzjqt9SPEp7-xoYBr-6" value="同步京东策略实现类" style="rounded=0;whiteSpace=wrap;html=1;" vertex="1" parent="1">
          <mxGeometry x="470" y="174" width="120" height="60" as="geometry" />
        </mxCell>
        <mxCell id="AhYzzjqt9SPEp7-xoYBr-13" style="edgeStyle=orthogonalEdgeStyle;rounded=0;orthogonalLoop=1;jettySize=auto;html=1;exitX=1;exitY=0.5;exitDx=0;exitDy=0;" edge="1" parent="1" source="AhYzzjqt9SPEp7-xoYBr-7">
          <mxGeometry relative="1" as="geometry">
            <mxPoint x="720" y="344" as="targetPoint" />
          </mxGeometry>
        </mxCell>
        <mxCell id="AhYzzjqt9SPEp7-xoYBr-14" value="同步顺一" style="edgeLabel;html=1;align=center;verticalAlign=middle;resizable=0;points=[];" vertex="1" connectable="0" parent="AhYzzjqt9SPEp7-xoYBr-13">
          <mxGeometry x="-0.2154" y="1" relative="1" as="geometry">
            <mxPoint as="offset" />
          </mxGeometry>
        </mxCell>
        <mxCell id="AhYzzjqt9SPEp7-xoYBr-7" value="同步顺一策略实现类" style="whiteSpace=wrap;html=1;" vertex="1" parent="1">
          <mxGeometry x="470" y="314" width="120" height="60" as="geometry" />
        </mxCell>
        <mxCell id="AhYzzjqt9SPEp7-xoYBr-18" style="edgeStyle=orthogonalEdgeStyle;rounded=0;orthogonalLoop=1;jettySize=auto;html=1;exitX=1;exitY=0.5;exitDx=0;exitDy=0;entryX=0;entryY=0.5;entryDx=0;entryDy=0;" edge="1" parent="1" source="AhYzzjqt9SPEp7-xoYBr-8" target="AhYzzjqt9SPEp7-xoYBr-10">
          <mxGeometry relative="1" as="geometry" />
        </mxCell>
        <mxCell id="AhYzzjqt9SPEp7-xoYBr-25" value="2" style="edgeLabel;html=1;align=center;verticalAlign=middle;resizable=0;points=[];" vertex="1" connectable="0" parent="AhYzzjqt9SPEp7-xoYBr-18">
          <mxGeometry x="-0.48" y="2" relative="1" as="geometry">
            <mxPoint x="8" as="offset" />
          </mxGeometry>
        </mxCell>
        <mxCell id="AhYzzjqt9SPEp7-xoYBr-8" value="商品部门与组织映射表" style="shape=internalStorage;whiteSpace=wrap;html=1;backgroundOutline=1;" vertex="1" parent="1">
          <mxGeometry x="320" y="79" width="190" height="60" as="geometry" />
        </mxCell>
        <mxCell id="AhYzzjqt9SPEp7-xoYBr-22" style="edgeStyle=orthogonalEdgeStyle;rounded=0;orthogonalLoop=1;jettySize=auto;html=1;exitX=0;exitY=1;exitDx=0;exitDy=0;entryX=0.75;entryY=0;entryDx=0;entryDy=0;" edge="1" parent="1">
          <mxGeometry relative="1" as="geometry">
            <mxPoint x="573" y="139" as="sourcePoint" />
            <mxPoint x="573" y="174" as="targetPoint" />
          </mxGeometry>
        </mxCell>
        <mxCell id="AhYzzjqt9SPEp7-xoYBr-26" value="3" style="edgeLabel;html=1;align=center;verticalAlign=middle;resizable=0;points=[];" vertex="1" connectable="0" parent="AhYzzjqt9SPEp7-xoYBr-22">
          <mxGeometry x="-0.0857" y="-1" relative="1" as="geometry">
            <mxPoint y="-3" as="offset" />
          </mxGeometry>
        </mxCell>
        <mxCell id="AhYzzjqt9SPEp7-xoYBr-10" value="组织架构-店铺映射表" style="shape=internalStorage;whiteSpace=wrap;html=1;backgroundOutline=1;" vertex="1" parent="1">
          <mxGeometry x="560" y="79" width="200" height="60" as="geometry" />
        </mxCell>
      </root>
    </mxGraphModel>
  </diagram>
</mxfile>
